<svg xmlns="http://www.w3.org/2000/svg" viewBox="0 0 680 470"><circle cx="150" cy="230" r="86" fill="none" stroke="#c8a868" stroke-width="0.7" opacity="0.25"/><circle cx="150" cy="230" r="110" fill="none" stroke="#c8a868" stroke-width="0.7" opacity="0.16"/><circle cx="150" cy="230" r="58" fill="#16263d"/><text x="150" y="226" text-anchor="middle" fill="#faf6ec" font-family="Cormorant Garamond, serif" font-size="22" font-weight="600">UMA</text><text x="150" y="250" text-anchor="middle" fill="#c8a868" font-family="Inter, sans-serif" font-size="11" letter-spacing="2">SUBSTÂNCIA</text><line x1="208" y1="230" x2="392" y2="95" stroke="#a9853f" stroke-width="1.3" opacity="0.8"/><rect x="400" y="73" width="210" height="44" fill="#faf6ec" stroke="#16263d" stroke-width="1.3"/><text x="505" y="101" text-anchor="middle" fill="#16263d" font-family="Cormorant Garamond, serif" font-size="19" font-style="normal">Pensamento</text><line x1="422" y1="117" x2="422" y2="141" stroke="#c8a868" stroke-width="1"/><circle cx="422" cy="147" r="4.5" fill="none" stroke="#c8a868" stroke-width="1.3"/><line x1="480" y1="117" x2="480" y2="141" stroke="#c8a868" stroke-width="1"/><circle cx="480" cy="147" r="4.5" fill="none" stroke="#c8a868" stroke-width="1.3"/><line x1="538" y1="117" x2="538" y2="141" stroke="#c8a868" stroke-width="1"/><circle cx="538" cy="147" r="4.5" fill="none" stroke="#c8a868" stroke-width="1.3"/><line x1="596" y1="117" x2="596" y2="141" stroke="#c8a868" stroke-width="1"/><circle cx="596" cy="147" r="4.5" fill="none" stroke="#c8a868" stroke-width="1.3"/><line x1="208" y1="230" x2="392" y2="235" stroke="#a9853f" stroke-width="1.3" opacity="0.8"/><rect x="400" y="213" width="210" height="44" fill="#faf6ec" stroke="#16263d" stroke-width="1.3"/><text x="505" y="241" text-anchor="middle" fill="#16263d" font-family="Cormorant Garamond, serif" font-size="19" font-style="normal">Extensão</text><line x1="422" y1="257" x2="422" y2="281" stroke="#c8a868" stroke-width="1"/><circle cx="422" cy="287" r="4.5" fill="none" stroke="#c8a868" stroke-width="1.3"/><line x1="480" y1="257" x2="480" y2="281" stroke="#c8a868" stroke-width="1"/><circle cx="480" cy="287" r="4.5" fill="none" stroke="#c8a868" stroke-width="1.3"/><line x1="538" y1="257" x2="538" y2="281" stroke="#c8a868" stroke-width="1"/><circle cx="538" cy="287" r="4.5" fill="none" stroke="#c8a868" stroke-width="1.3"/><line x1="596" y1="257" x2="596" y2="281" stroke="#c8a868" stroke-width="1"/><circle cx="596" cy="287" r="4.5" fill="none" stroke="#c8a868" stroke-width="1.3"/><line x1="208" y1="230" x2="392" y2="370" stroke="#a9853f" stroke-width="1.3" opacity="0.8"/><rect x="400" y="348" width="210" height="44" fill="none" stroke="#16263d" stroke-width="1.3" stroke-dasharray="3 4"/><text x="505" y="376" text-anchor="middle" fill="#a9853f" font-family="Cormorant Garamond, serif" font-size="19" font-style="italic">infinitos atributos…</text><text x="150" y="458" text-anchor="middle" fill="#6c6555" font-family="Inter, sans-serif" font-size="10" letter-spacing="0.5">os MODOS — tudo o que existe: você, uma pedra, uma ideia</text></svg>